<svg xmlns="http://www.w3.org/2000/svg" viewBox="0 0 187 167" fill="none">
  <path
    d="M 22 141 C 20 137, 20 129, 21 121 C 24 101, 31 82, 42 63 C 52 47, 64 32, 79 20 C 82 18, 86 18, 88 21 C 96 36, 102 51, 108 69 C 96 82, 84 94, 71 106 C 62 114, 52 123, 42 130 C 35 135, 28 139, 22 141 Z"
    fill="#050507"
  />
  <path
    d="M 106 129 C 103 126, 99 118, 96 112 C 94 107, 92 102, 90 97 C 107 79, 124 60, 142 41 C 145 38, 148 35, 150 36 C 152 38, 153 48, 155 58 C 157 66, 158 72, 159 77 C 142 94, 124 112, 106 129 Z"
    fill="#050507"
  />
  <path
    d="M 165 123 C 156 120, 146 117, 135 114 C 136 111, 144 103, 151 96 C 156 91, 160 87, 161 87 C 162 88, 162 94, 163 100 C 164 107, 166 115, 166 121 C 166 122, 166 123, 165 123 Z"
    fill="#050507"
  />
</svg>
